<svg width="18" height="16" viewBox="0 0 18 16" fill="none" xmlns="http://www.w3.org/2000/svg">
<path d="M2.875 15.4375C1.48438 15.4375 0.59375 14.4141 0.59375 13.1562C0.59375 12.7734 0.695312 12.375 0.90625 12.0078L6.94531 1.47656C7.375 0.71875 8.13281 0.328125 8.90625 0.328125C9.67188 0.328125 10.4297 0.710938 10.8594 1.47656L16.8984 12C17.1094 12.375 17.2109 12.7734 17.2109 13.1562C17.2109 14.4141 16.3203 15.4375 14.9297 15.4375H2.875ZM8.91406 9.98438C9.39844 9.98438 9.67969 9.71094 9.69531 9.19531L9.82031 5.50781C9.84375 4.98438 9.45312 4.61719 8.90625 4.61719C8.34375 4.61719 7.96875 4.98438 7.99219 5.50781L8.10938 9.20312C8.125 9.70312 8.41406 9.98438 8.91406 9.98438ZM8.91406 12.7266C9.47656 12.7266 9.92969 12.3516 9.92969 11.7969C9.92969 11.25 9.48438 10.8594 8.91406 10.8594C8.34375 10.8594 7.89062 11.25 7.89062 11.7969C7.89062 12.3438 8.34375 12.7266 8.91406 12.7266Z" fill="#111111"/>
</svg>
