<svg width="29" height="36" viewBox="0 0 29 36" fill="none" xmlns="http://www.w3.org/2000/svg">
<path d="M19.4556 6.01172C18.2778 7.43555 16.3091 8.49023 14.7446 8.49023C14.5513 8.49023 14.3755 8.45508 14.27 8.4375C14.2524 8.34961 14.1997 8.08594 14.1997 7.80469C14.1997 6.01172 15.1138 4.21875 16.1157 3.09375C17.3638 1.61719 19.4731 0.527344 21.231 0.457031C21.2661 0.650391 21.2837 0.896484 21.2837 1.14258C21.2837 2.93555 20.5278 4.71094 19.4556 6.01172ZM20.686 8.85938C21.6704 8.85938 25.2388 8.96484 27.5767 12.3223C27.3657 12.4805 23.8325 14.4844 23.8325 18.9492C23.8325 24.0996 28.3325 25.9453 28.4731 25.9805C28.4556 26.1035 27.7524 28.4766 26.1001 30.9199C24.606 33.0469 23.0415 35.209 20.686 35.209C18.313 35.209 17.6978 33.8203 14.9907 33.8203C12.3188 33.8203 11.3696 35.2441 9.2251 35.2441C7.04541 35.2441 5.53369 33.2578 3.81104 30.832C1.78955 27.9668 0.172363 23.5195 0.172363 19.3008C0.172363 12.5508 4.56689 8.96484 8.90869 8.96484C11.1938 8.96484 13.0923 10.459 14.5513 10.459C15.9224 10.459 18.0669 8.85938 20.686 8.85938Z" fill="white"/>
</svg>
