<svg width="14" height="14" viewBox="0 0 14 14" fill="none" xmlns="http://www.w3.org/2000/svg">
<path d="M12.7471 1.5C13.4512 2.19727 13.6016 3.16113 13.6016 4.4668V9.66211C13.6016 10.9678 13.4512 11.9248 12.7471 12.6289C12.0361 13.333 11.0654 13.4902 9.7666 13.4902H4.57812C3.27246 13.4902 2.30859 13.333 1.59766 12.6289C0.893555 11.9248 0.743164 10.9678 0.743164 9.66211V4.45312C0.743164 3.16113 0.893555 2.2041 1.59766 1.5C2.30176 0.789062 3.2793 0.631836 4.56445 0.631836H9.7666C11.0654 0.631836 12.0361 0.789062 12.7471 1.5ZM3.81934 7.06445C3.81934 7.48828 4.12695 7.78906 4.54395 7.78906H6.4375V9.68262C6.4375 10.0996 6.73828 10.4072 7.16211 10.4072C7.58594 10.4072 7.89355 10.0996 7.89355 9.68262V7.78906H9.79395C10.2109 7.78906 10.5117 7.48828 10.5117 7.06445C10.5117 6.64062 10.2109 6.33301 9.79395 6.33301H7.89355V4.43945C7.89355 4.01562 7.58594 3.71484 7.16211 3.71484C6.73828 3.71484 6.4375 4.01562 6.4375 4.43945V6.33301H4.54395C4.12012 6.33301 3.81934 6.64062 3.81934 7.06445Z" fill="#0B0B0B"/>
</svg>
