<svg width="28" height="32" viewBox="0 0 28 32" fill="none" xmlns="http://www.w3.org/2000/svg">
<path d="M0.560481 1.2932C0.205457 1.65605 -2.86102e-06 2.22098 -2.86102e-06 2.95258V29.0483C-2.86102e-06 29.7799 0.205457 30.3448 0.560481 30.7077L0.648105 30.7873L15.6256 16.1701V15.8249L0.648105 1.20765L0.560481 1.2932Z" fill="url(#paint0_linear_1_2)"/>
<path d="M20.6125 21.045L15.6255 16.1702V15.825L20.6185 10.9501L20.7303 11.0136L26.6434 14.2984C28.3309 15.2306 28.3309 16.7646 26.6434 17.7027L20.7303 20.9816L20.6125 21.045V21.045Z" fill="url(#paint1_linear_1_2)"/>
<path d="M20.7303 20.9814L15.6256 15.9974L0.560446 30.7075C1.12093 31.2828 2.03493 31.3521 3.07432 30.7769L20.7303 20.9814" fill="url(#paint2_linear_1_2)"/>
<path d="M20.7303 11.0134L3.07432 1.21797C2.03493 0.648616 1.12093 0.717939 0.560446 1.29319L15.6256 15.9975L20.7303 11.0134Z" fill="url(#paint3_linear_1_2)"/>
<defs>
<linearGradient id="paint0_linear_1_2" x1="14.2958" y1="29.32" x2="-5.50179" y2="9.04277" gradientUnits="userSpaceOnUse">
<stop stop-color="#00A0FF"/>
<stop offset="0.0066" stop-color="#00A1FF"/>
<stop offset="0.2601" stop-color="#00BEFF"/>
<stop offset="0.5122" stop-color="#00D2FF"/>
<stop offset="0.7604" stop-color="#00DFFF"/>
<stop offset="1" stop-color="#00E3FF"/>
</linearGradient>
<linearGradient id="paint1_linear_1_2" x1="28.8408" y1="15.9959" x2="-0.403429" y2="15.9959" gradientUnits="userSpaceOnUse">
<stop stop-color="#FFE000"/>
<stop offset="0.4087" stop-color="#FFBD00"/>
<stop offset="0.7754" stop-color="#FFA500"/>
<stop offset="1" stop-color="#FF9C00"/>
</linearGradient>
<linearGradient id="paint2_linear_1_2" x1="17.9545" y1="13.288" x2="-8.89258" y2="-14.2097" gradientUnits="userSpaceOnUse">
<stop stop-color="#FF3A44"/>
<stop offset="1" stop-color="#C31162"/>
</linearGradient>
<linearGradient id="paint3_linear_1_2" x1="-3.23176" y1="39.3896" x2="8.75668" y2="27.1107" gradientUnits="userSpaceOnUse">
<stop stop-color="#32A071"/>
<stop offset="0.0685" stop-color="#2DA771"/>
<stop offset="0.4762" stop-color="#15CF74"/>
<stop offset="0.8009" stop-color="#06E775"/>
<stop offset="1" stop-color="#00F076"/>
</linearGradient>
</defs>
</svg>
